<svg xmlns="http://www.w3.org/2000/svg" width="1200" height="630" viewBox="0 0 1200 630">
  <defs>
    <linearGradient id="g" x1="0" y1="0" x2="1" y2="1">
      <stop offset="0" stop-color="#3a6ea8"/><stop offset=".55" stop-color="#c98a3d"/><stop offset="1" stop-color="#b84d8e"/>
    </linearGradient>
  </defs>
  <rect width="1200" height="630" fill="#1a1712"/>
  <g stroke="#2e2a22" stroke-width="1">
    <path d="M0 90h1200M0 180h1200M0 270h1200M0 360h1200M0 450h1200M0 540h1200"/>
    <path d="M100 0v630M200 0v630M300 0v630M400 0v630M500 0v630M600 0v630M700 0v630M800 0v630M900 0v630M1000 0v630M1100 0v630"/>
  </g>
  <rect x="60" y="60" width="1080" height="510" rx="20" fill="none" stroke="url(#g)" stroke-width="3"/>
  <text x="600" y="250" text-anchor="middle" font-family="Arial,Helvetica,sans-serif" font-size="88" font-weight="bold" fill="#f0e9dc" letter-spacing="6">MARVIS ARCADE</text>
  <text x="600" y="320" text-anchor="middle" font-family="Arial,Helvetica,sans-serif" font-size="34" fill="#b9b0a0" letter-spacing="3">12 LIGHTWEIGHT HTML5 GAMES</text>
  <text x="600" y="370" text-anchor="middle" font-family="Arial,Helvetica,sans-serif" font-size="28" fill="#8a8375" letter-spacing="2">PLAY INSTANTLY · NO BACKEND · NO DEPENDENCIES</text>
  <g fill="#c98a3d">
    <circle cx="360" cy="470" r="9"/><circle cx="420" cy="470" r="9"/><circle cx="480" cy="470" r="9"/>
    <circle cx="540" cy="470" r="9"/><circle cx="600" cy="470" r="9"/><circle cx="660" cy="470" r="9"/>
    <circle cx="720" cy="470" r="9"/><circle cx="780" cy="470" r="9"/><circle cx="840" cy="470" r="9"/>
    <circle cx="600" cy="430" r="9"/><circle cx="600" cy="510" r="9"/><circle cx="900" cy="430" r="9"/>
  </g>
  <text x="600" y="535" text-anchor="middle" font-family="Arial,Helvetica,sans-serif" font-size="22" fill="#6b655a" letter-spacing="2">SNAKE · TETRIS · BREAKOUT · 2048 · RHYTHM · SABER · ROTA · ARTILLERY · TOWER DEFENSE · POLYGONFALL · HEXTRIS · STAR ORBIT</text>
</svg>